<?xml version="1.0" encoding="UTF-8" standalone="no"?>
<!-- Created with Inkscape (http://www.inkscape.org/) -->

<svg
   xmlns:dc="http://purl.org/dc/elements/1.1/"
   xmlns:cc="http://creativecommons.org/ns#"
   xmlns:rdf="http://www.w3.org/1999/02/22-rdf-syntax-ns#"
   xmlns:svg="http://www.w3.org/2000/svg"
   xmlns="http://www.w3.org/2000/svg"
   xmlns:sodipodi="http://sodipodi.sourceforge.net/DTD/sodipodi-0.dtd"
   xmlns:inkscape="http://www.inkscape.org/namespaces/inkscape"
   width="128"
   height="128"
   viewBox="0 0 128 128"
   version="1.1"
   id="svg8"
   inkscape:version="0.92.4 (5da689c313, 2019-01-14)"
   sodipodi:docname="lock.svg">
  <defs
     id="defs2" />
  <sodipodi:namedview
     id="base"
     pagecolor="#ffffff"
     bordercolor="#666666"
     borderopacity="1.0"
     inkscape:pageopacity="0.0"
     inkscape:pageshadow="2"
     inkscape:zoom="5.4679048"
     inkscape:cx="112.35021"
     inkscape:cy="41.388741"
     inkscape:document-units="px"
     inkscape:current-layer="layer1"
     showgrid="true"
     units="px"
     inkscape:window-width="1920"
     inkscape:window-height="1137"
     inkscape:window-x="-8"
     inkscape:window-y="-8"
     inkscape:window-maximized="1"
     showguides="true">
    <inkscape:grid
       type="xygrid"
       id="grid4611" />
  </sodipodi:namedview>
  <metadata
     id="metadata5">
    <rdf:RDF>
      <cc:Work
         rdf:about="">
        <dc:format>image/svg+xml</dc:format>
        <dc:type
           rdf:resource="http://purl.org/dc/dcmitype/StillImage" />
        <dc:title></dc:title>
      </cc:Work>
    </rdf:RDF>
  </metadata>
  <g
     inkscape:label="レイヤー 1"
     inkscape:groupmode="layer"
     id="layer1"
     transform="translate(0,-242.54166)">
    <path
       style="fill:#000000;fill-opacity:1;stroke:#000000;stroke-width:1.49999988;stroke-linecap:round;stroke-linejoin:round;stroke-miterlimit:4;stroke-dasharray:none;stroke-dashoffset:0;stroke-opacity:1"
       d="m 41.625003,302.30566 h 44.749994 c 2.216002,0 4.000003,1.78401 4.000003,4.00001 v 25.12972 c 0,2.21601 -1.784001,4.00001 -4.000003,4.00001 H 41.625003 c -2.216002,0 -4.000003,-1.784 -4.000003,-4.00001 v -25.12972 c 0,-2.216 1.784001,-4.00001 4.000003,-4.00001 z"
       id="rect15110" />
    <path
       style="fill:#ffffff;fill-opacity:1;stroke:none;stroke-width:5;stroke-linecap:round;stroke-linejoin:round;stroke-miterlimit:4;stroke-dasharray:none;stroke-dashoffset:0;stroke-opacity:1"
       d="M 68.164474,314.78311 A 4.1644735,4.1304607 0 0 1 64,318.91357 4.1644735,4.1304607 0 0 1 59.835526,314.78311 4.1644735,4.1304607 0 0 1 64,310.65265 a 4.1644735,4.1304607 0 0 1 4.164474,4.13046 z"
       id="path15145" />
    <path
       style="color:#000000;font-style:normal;font-variant:normal;font-weight:normal;font-stretch:normal;font-size:medium;line-height:normal;font-family:sans-serif;font-variant-ligatures:normal;font-variant-position:normal;font-variant-caps:normal;font-variant-numeric:normal;font-variant-alternates:normal;font-feature-settings:normal;text-indent:0;text-align:start;text-decoration:none;text-decoration-line:none;text-decoration-style:solid;text-decoration-color:#000000;letter-spacing:normal;word-spacing:normal;text-transform:none;writing-mode:lr-tb;direction:ltr;text-orientation:mixed;dominant-baseline:auto;baseline-shift:baseline;text-anchor:start;white-space:normal;shape-padding:0;clip-rule:nonzero;display:inline;overflow:visible;visibility:visible;opacity:1;isolation:auto;mix-blend-mode:normal;color-interpolation:sRGB;color-interpolation-filters:linearRGB;solid-color:#000000;solid-opacity:1;vector-effect:none;fill:#000000;fill-opacity:1;fill-rule:nonzero;stroke:none;stroke-width:5;stroke-linecap:round;stroke-linejoin:round;stroke-miterlimit:4;stroke-dasharray:none;stroke-dashoffset:0;stroke-opacity:1;color-rendering:auto;image-rendering:auto;shape-rendering:auto;text-rendering:auto;enable-background:accumulate"
       d="m 64,276.04102 c -7.857191,0 -14.5,5.83441 -14.5,13.31445 v 24.37109 c 0,7.48003 6.642807,13.31446 14.5,13.31446 7.857193,0 14.5,-5.83443 14.5,-13.31446 v -24.37109 c 0,-7.48004 -6.642809,-13.31445 -14.5,-13.31445 z m 0,5 c 5.438809,0 9.5,3.81212 9.5,8.31445 v 24.37109 c 0,4.50231 -4.061193,8.31446 -9.5,8.31446 -5.438807,0 -9.5,-3.81215 -9.5,-8.31446 v -24.37109 c 0,-4.50233 4.061191,-8.31445 9.5,-8.31445 z"
       id="rect15166"
       inkscape:connector-curvature="0" />
    <path
       style="fill:#ffffff;fill-opacity:1;stroke:none;stroke-width:5;stroke-linecap:round;stroke-linejoin:round;stroke-miterlimit:4;stroke-dasharray:none;stroke-dashoffset:0;stroke-opacity:1"
       d="m 64.000001,317.45068 c 0.769039,0 1.388158,0.61912 1.388158,1.38816 v 4.31466 c 0,0.76904 -0.619119,1.38816 -1.388158,1.38816 -0.769039,0 -1.388158,-0.61912 -1.388158,-1.38816 v -4.31466 c 0,-0.76904 0.619119,-1.38816 1.388158,-1.38816 z"
       id="rect15116-6" />
  </g>
</svg>
