<?xml version="1.0" encoding="UTF-8" standalone="no"?>
<!-- Created with Inkscape (http://www.inkscape.org/) -->

<svg
   xmlns:dc="http://purl.org/dc/elements/1.1/"
   xmlns:cc="http://creativecommons.org/ns#"
   xmlns:rdf="http://www.w3.org/1999/02/22-rdf-syntax-ns#"
   xmlns:svg="http://www.w3.org/2000/svg"
   xmlns="http://www.w3.org/2000/svg"
   xmlns:sodipodi="http://sodipodi.sourceforge.net/DTD/sodipodi-0.dtd"
   xmlns:inkscape="http://www.inkscape.org/namespaces/inkscape"
   width="128"
   height="128"
   viewBox="0 0 128 128"
   version="1.1"
   id="svg8"
   inkscape:version="0.92.4 (5da689c313, 2019-01-14)"
   sodipodi:docname="reachable.svg">
  <defs
     id="defs2" />
  <sodipodi:namedview
     id="base"
     pagecolor="#ffffff"
     bordercolor="#666666"
     borderopacity="1.0"
     inkscape:pageopacity="0.0"
     inkscape:pageshadow="2"
     inkscape:zoom="3.8779467"
     inkscape:cx="34.520594"
     inkscape:cy="29.460408"
     inkscape:document-units="px"
     inkscape:current-layer="layer6"
     showgrid="true"
     units="px"
     inkscape:window-width="1920"
     inkscape:window-height="1137"
     inkscape:window-x="-8"
     inkscape:window-y="-8"
     inkscape:window-maximized="1">
    <inkscape:grid
       type="xygrid"
       id="grid5591"
       enabled="false" />
  </sodipodi:namedview>
  <metadata
     id="metadata5">
    <rdf:RDF>
      <cc:Work
         rdf:about="">
        <dc:format>image/svg+xml</dc:format>
        <dc:type
           rdf:resource="http://purl.org/dc/dcmitype/StillImage" />
        <dc:title />
      </cc:Work>
    </rdf:RDF>
  </metadata>
  <g
     inkscape:groupmode="layer"
     id="layer6"
     inkscape:label="レイヤー 2"
     style="display:inline">
    <path
       style="color:#000000;font-style:normal;font-variant:normal;font-weight:normal;font-stretch:normal;font-size:medium;line-height:normal;font-family:sans-serif;font-variant-ligatures:normal;font-variant-position:normal;font-variant-caps:normal;font-variant-numeric:normal;font-variant-alternates:normal;font-feature-settings:normal;text-indent:0;text-align:start;text-decoration:none;text-decoration-line:none;text-decoration-style:solid;text-decoration-color:#000000;letter-spacing:normal;word-spacing:normal;text-transform:none;writing-mode:lr-tb;direction:ltr;text-orientation:mixed;dominant-baseline:auto;baseline-shift:baseline;text-anchor:start;white-space:normal;shape-padding:0;clip-rule:nonzero;display:inline;overflow:visible;visibility:visible;opacity:1;isolation:auto;mix-blend-mode:normal;color-interpolation:sRGB;color-interpolation-filters:linearRGB;solid-color:#000000;solid-opacity:1;vector-effect:none;fill:#000000;fill-opacity:1;fill-rule:nonzero;stroke:none;stroke-width:1px;stroke-linecap:butt;stroke-linejoin:miter;stroke-miterlimit:4;stroke-dasharray:none;stroke-dashoffset:0;stroke-opacity:1;color-rendering:auto;image-rendering:auto;shape-rendering:auto;text-rendering:auto;enable-background:accumulate"
       d="m 12.093403,99.028066 c -3.1287903,-0.01473 -6.2986572,2.345044 -6.4687499,7.138674 -0.06551,1.84621 0.5262465,4.24007 1.890625,6.23828 1.3643832,1.99822 3.5552569,3.58896 6.5703129,3.62305 2.086019,0.0236 3.664917,-0.50376 5.166015,-1.00977 1.501099,-0.50601 2.925061,-0.99023 4.839844,-0.99023 1.91694,0 3.296286,0.47845 4.183594,1.20508 0.887308,0.72663 1.316406,1.70128 1.316406,2.85351 0,1.74324 -1.263467,3.10547 -3.433594,3.10547 -0.986001,0 -1.771279,-0.28297 -2.302734,-0.75 -0.53145,-0.46702 -0.837891,-1.119 -0.837891,-1.99609 0,-1.17593 0.782281,-2.08738 1.524412,-2.16948 0.259195,-0.0287 0.735226,-0.10122 0.890536,0.18344 0.186824,0.34242 -0.144486,0.58922 -0.425251,1.06298 -0.40403,0.68175 0.580477,1.03661 -0.3941,2.17056 0,0 0.956904,0.0987 1.370229,-0.32756 0.413325,-0.42627 0.867922,-1.11681 0.895504,-1.88088 0.03711,-1.02799 -0.908336,-1.9926 -2.326171,-1.98437 -1.375202,0.008 -2.535157,1.30262 -2.535157,2.94531 0,1.12291 0.432645,2.09157 1.179688,2.74805 0.747039,0.65647 1.78286,0.99804 2.960937,0.99804 2.617454,0 4.433594,-1.8487 4.433594,-4.10547 0,-1.4122 -0.570904,-2.71771 -1.683594,-3.6289 -1.112696,-0.9112 -2.733348,-1.42969 -4.816408,-1.42969 -2.085217,0 -3.661191,0.53768 -5.160156,1.04297 -1.498966,0.50529 -2.92026,0.97865 -4.833985,0.95703 -2.674624,-0.0302 -4.5285493,-1.39003 -5.755859,-3.1875 -1.2273097,-1.79747 -1.7733613,-4.04455 -1.7167969,-5.63867 0.1554561,-4.38113 2.8201514,-6.18646 5.4648439,-6.17383 1.219466,0.006 2.061743,0.44817 2.634765,1.09766 0.573023,0.64949 0.867188,1.52986 0.867188,2.40234 0,0.90184 -0.259982,1.65555 -0.771484,2.18359 -0.511506,0.52805 -1.296751,0.86821 -2.490235,0.85352 -0.894654,-0.011 -1.804805,-0.47353 -2.123468,-1.125 -0.3186625,-0.65147 -0.2832537,-1.65404 0.18516,-2.40236 L 9.8062938,102.6726 c -0.6475292,1.03447 -0.6729131,2.2466 -0.203125,3.20703 0.4697882,0.96043 1.4603232,1.67012 2.7128902,1.68555 1.397213,0.0172 2.497513,-0.40961 3.222657,-1.1582 0.725148,-0.7486 1.052734,-1.78075 1.052734,-2.87891 0,-1.0947 -0.362364,-2.2089 -1.117188,-3.06445 -0.754823,-0.855554 -1.911708,-1.428639 -3.380859,-1.435554 z"
       id="path5609"
       inkscape:connector-curvature="0"
       sodipodi:nodetypes="sssssssssssssscsssssssssssssssssssccssssss" />
    <path
       style="color:#000000;font-style:normal;font-variant:normal;font-weight:normal;font-stretch:normal;font-size:medium;line-height:normal;font-family:sans-serif;font-variant-ligatures:normal;font-variant-position:normal;font-variant-caps:normal;font-variant-numeric:normal;font-variant-alternates:normal;font-feature-settings:normal;text-indent:0;text-align:start;text-decoration:none;text-decoration-line:none;text-decoration-style:solid;text-decoration-color:#000000;letter-spacing:normal;word-spacing:normal;text-transform:none;writing-mode:lr-tb;direction:ltr;text-orientation:mixed;dominant-baseline:auto;baseline-shift:baseline;text-anchor:start;white-space:normal;shape-padding:0;clip-rule:nonzero;display:inline;overflow:visible;visibility:visible;opacity:1;isolation:auto;mix-blend-mode:normal;color-interpolation:sRGB;color-interpolation-filters:linearRGB;solid-color:#000000;solid-opacity:1;vector-effect:none;fill:#000000;fill-opacity:1;fill-rule:nonzero;stroke:none;stroke-width:1px;stroke-linecap:butt;stroke-linejoin:miter;stroke-miterlimit:4;stroke-dasharray:none;stroke-dashoffset:0;stroke-opacity:1;color-rendering:auto;image-rendering:auto;shape-rendering:auto;text-rendering:auto;enable-background:accumulate"
       d="m 10.569612,114.29647 -0.7680306,0.13964 c 0,0 2.1428206,1.12979 2.7867546,1.73647 0.643939,0.60669 1.166232,1.4392 1.1465,2.32699 -0.02719,1.22323 -1.626876,2.92252 -3.8074485,3.00782 -1.0407732,0.0407 -2.2718128,-0.60568 -2.8820713,-1.28283 -0.6102584,-0.67715 -0.8952426,-1.65249 -0.9050715,-2.41915 -0.010785,-0.84122 0.3074019,-1.53382 0.6054855,-1.94493 0.2980791,-0.4111 0.4350694,-0.78252 1.2612981,-0.7836 0.5651162,-7.4e-4 0.6809268,0.995 0.8792435,1.62782 0.3517571,1.12244 1.4554152,0.35975 2.0109942,1.90269 0.44502,-1.02579 0.673805,-1.99494 0.178205,-2.76991 -0.495604,-0.77498 -1.6578913,-1.59759 -2.609021,-1.59652 -1.0506032,0.001 -1.7809445,0.55774 -2.26874,1.23049 -0.4877907,0.67274 -0.741657,1.38237 -0.7293069,2.34568 0.013433,1.04779 0.4522536,2.15254 1.2265625,3.01172 0.774309,0.85918 1.9152938,1.46908 3.2714844,1.41602 2.628755,-0.10286 4.463929,-1.93353 4.505859,-3.82032 0.02654,-1.19438 -0.541133,-2.10438 -1.296875,-2.8164 -0.755741,-0.71202 -2.605822,-1.31168 -2.605822,-1.31168 z"
       id="path5611"
       inkscape:connector-curvature="0"
       sodipodi:nodetypes="sssssssssscsssssssss" />
    <ellipse
       style="fill:#000000;fill-opacity:1;stroke:none;stroke-width:0.49999997;stroke-linecap:round;stroke-linejoin:round;stroke-miterlimit:4;stroke-dasharray:none;stroke-dashoffset:0;stroke-opacity:1"
       id="path5619"
       cx="11.175998"
       cy="103.24846"
       rx="1.5085987"
       ry="1.4683125" />
    <path
       style="color:#000000;font-style:normal;font-variant:normal;font-weight:normal;font-stretch:normal;font-size:medium;line-height:normal;font-family:sans-serif;font-variant-ligatures:normal;font-variant-position:normal;font-variant-caps:normal;font-variant-numeric:normal;font-variant-alternates:normal;font-feature-settings:normal;text-indent:0;text-align:start;text-decoration:none;text-decoration-line:none;text-decoration-style:solid;text-decoration-color:#000000;letter-spacing:normal;word-spacing:normal;text-transform:none;writing-mode:lr-tb;direction:ltr;text-orientation:mixed;dominant-baseline:auto;baseline-shift:baseline;text-anchor:start;white-space:normal;shape-padding:0;clip-rule:nonzero;display:inline;overflow:visible;visibility:visible;opacity:1;isolation:auto;mix-blend-mode:normal;color-interpolation:sRGB;color-interpolation-filters:linearRGB;solid-color:#000000;solid-opacity:1;vector-effect:none;fill:#000000;fill-opacity:1;fill-rule:nonzero;stroke:none;stroke-width:1px;stroke-linecap:butt;stroke-linejoin:miter;stroke-miterlimit:4;stroke-dasharray:none;stroke-dashoffset:0;stroke-opacity:1;color-rendering:auto;image-rendering:auto;shape-rendering:auto;text-rendering:auto;enable-background:accumulate"
       d="m 15.950825,106.88549 c -1.086145,-0.026 -2.101294,0.40047 -2.857422,1.01758 -0.756128,0.61711 -1.293786,1.32174 -1.263672,2.32227 0.02321,0.77104 0.237007,1.45056 0.714844,1.94531 0.477837,0.49475 1.172291,0.7614 2.041016,0.86328 -1.147967,-1.35729 -0.792292,-3.43735 -0.417176,-4.1945 0.336469,-0.67915 0.955759,-0.97316 1.758973,-0.95394 2.017729,0.0483 3.27901,1.5986 3.30664,2.8418 0.04104,1.84662 -1.131101,3.57467 -3.354007,4.40282 l 0.279788,0.40221 c 2.496666,-0.93014 4.123773,-2.5088 4.072266,-4.82652 -0.04149,-1.86682 -1.76769,-3.76017 -4.28125,-3.82031 z"
       id="path5611-9"
       inkscape:connector-curvature="0"
       sodipodi:nodetypes="sssscsssccss" />
    <path
       style="color:#000000;font-style:normal;font-variant:normal;font-weight:normal;font-stretch:normal;font-size:medium;line-height:normal;font-family:sans-serif;font-variant-ligatures:normal;font-variant-position:normal;font-variant-caps:normal;font-variant-numeric:normal;font-variant-alternates:normal;font-feature-settings:normal;text-indent:0;text-align:start;text-decoration:none;text-decoration-line:none;text-decoration-style:solid;text-decoration-color:#000000;letter-spacing:normal;word-spacing:normal;text-transform:none;writing-mode:lr-tb;direction:ltr;text-orientation:mixed;dominant-baseline:auto;baseline-shift:baseline;text-anchor:start;white-space:normal;shape-padding:0;clip-rule:nonzero;display:inline;overflow:visible;visibility:visible;opacity:1;isolation:auto;mix-blend-mode:normal;color-interpolation:sRGB;color-interpolation-filters:linearRGB;solid-color:#000000;solid-opacity:1;vector-effect:none;fill:#000000;fill-opacity:1;fill-rule:nonzero;stroke:none;stroke-width:1px;stroke-linecap:butt;stroke-linejoin:miter;stroke-miterlimit:4;stroke-dasharray:none;stroke-dashoffset:0;stroke-opacity:1;color-rendering:auto;image-rendering:auto;shape-rendering:auto;text-rendering:auto;enable-background:accumulate"
       d="m 115.9066,99.028066 c 3.12879,-0.01473 6.29865,2.345044 6.46875,7.138674 0.0655,1.84621 -0.52625,4.24007 -1.89063,6.23828 -1.36438,1.99822 -3.55525,3.58896 -6.57031,3.62305 -2.08602,0.0236 -3.66492,-0.50376 -5.16602,-1.00977 -1.50109,-0.50601 -2.92506,-0.99023 -4.83984,-0.99023 -1.91694,0 -3.29629,0.47845 -4.183594,1.20508 -0.887308,0.72663 -1.316406,1.70128 -1.316406,2.85351 0,1.74324 1.263467,3.10547 3.43359,3.10547 0.98601,0 1.77128,-0.28297 2.30274,-0.75 0.53145,-0.46702 0.83789,-1.119 0.83789,-1.99609 0,-1.17593 -0.78228,-2.08738 -1.52441,-2.16948 -0.2592,-0.0287 -0.73523,-0.10122 -0.89054,0.18344 -0.18682,0.34242 0.14449,0.58922 0.42525,1.06298 0.40403,0.68175 -0.58047,1.03661 0.3941,2.17056 0,0 -0.9569,0.0987 -1.37023,-0.32756 -0.41332,-0.42627 -0.86792,-1.11681 -0.8955,-1.88088 -0.0371,-1.02799 0.90834,-1.9926 2.32617,-1.98437 1.3752,0.008 2.53516,1.30262 2.53516,2.94531 0,1.12291 -0.43265,2.09157 -1.17969,2.74805 -0.74704,0.65647 -1.78286,0.99804 -2.96094,0.99804 -2.617452,0 -4.433592,-1.8487 -4.433592,-4.10547 0,-1.4122 0.570904,-2.71771 1.683594,-3.6289 1.112698,-0.9112 2.733348,-1.42969 4.816408,-1.42969 2.08522,0 3.66119,0.53768 5.16016,1.04297 1.49896,0.50529 2.92026,0.97865 4.83398,0.95703 2.67463,-0.0302 4.52855,-1.39003 5.75586,-3.1875 1.22731,-1.79747 1.77336,-4.04455 1.7168,-5.63867 -0.15546,-4.38113 -2.82015,-6.18646 -5.46485,-6.17383 -1.21946,0.006 -2.06174,0.44817 -2.63476,1.09766 -0.57302,0.64949 -0.86719,1.52986 -0.86719,2.40234 0,0.90184 0.25998,1.65555 0.77148,2.18359 0.51151,0.52805 1.29676,0.86821 2.49024,0.85352 0.89465,-0.011 1.8048,-0.47353 2.12347,-1.125 0.31866,-0.65147 0.28325,-1.65404 -0.18516,-2.40236 l 0.58513,-0.36522 c 0.64753,1.03447 0.67291,2.2466 0.20312,3.20703 -0.46979,0.96043 -1.46032,1.67012 -2.71289,1.68555 -1.39721,0.0172 -2.49751,-0.40961 -3.22266,-1.1582 -0.72514,-0.7486 -1.05273,-1.78075 -1.05273,-2.87891 0,-1.0947 0.36236,-2.2089 1.11719,-3.06445 0.75482,-0.855554 1.91171,-1.428639 3.38086,-1.435554 z"
       id="path5609-0"
       inkscape:connector-curvature="0"
       sodipodi:nodetypes="sssssssssssssscsssssssssssssssssssccssssss" />
    <path
       style="color:#000000;font-style:normal;font-variant:normal;font-weight:normal;font-stretch:normal;font-size:medium;line-height:normal;font-family:sans-serif;font-variant-ligatures:normal;font-variant-position:normal;font-variant-caps:normal;font-variant-numeric:normal;font-variant-alternates:normal;font-feature-settings:normal;text-indent:0;text-align:start;text-decoration:none;text-decoration-line:none;text-decoration-style:solid;text-decoration-color:#000000;letter-spacing:normal;word-spacing:normal;text-transform:none;writing-mode:lr-tb;direction:ltr;text-orientation:mixed;dominant-baseline:auto;baseline-shift:baseline;text-anchor:start;white-space:normal;shape-padding:0;clip-rule:nonzero;display:inline;overflow:visible;visibility:visible;opacity:1;isolation:auto;mix-blend-mode:normal;color-interpolation:sRGB;color-interpolation-filters:linearRGB;solid-color:#000000;solid-opacity:1;vector-effect:none;fill:#000000;fill-opacity:1;fill-rule:nonzero;stroke:none;stroke-width:1px;stroke-linecap:butt;stroke-linejoin:miter;stroke-miterlimit:4;stroke-dasharray:none;stroke-dashoffset:0;stroke-opacity:1;color-rendering:auto;image-rendering:auto;shape-rendering:auto;text-rendering:auto;enable-background:accumulate"
       d="m 117.43039,114.29647 0.76803,0.13964 c 0,0 -2.14282,1.12979 -2.78676,1.73647 -0.64393,0.60669 -1.16623,1.4392 -1.1465,2.32699 0.0272,1.22323 1.62688,2.92252 3.80745,3.00782 1.04078,0.0407 2.27182,-0.60568 2.88207,-1.28283 0.61026,-0.67715 0.89525,-1.65249 0.90508,-2.41915 0.0108,-0.84122 -0.30741,-1.53382 -0.60549,-1.94493 -0.29808,-0.4111 -0.43507,-0.78252 -1.2613,-0.7836 -0.56511,-7.4e-4 -0.68093,0.995 -0.87924,1.62782 -0.35176,1.12244 -1.45542,0.35975 -2.011,1.90269 -0.44502,-1.02579 -0.6738,-1.99494 -0.1782,-2.76991 0.4956,-0.77498 1.65789,-1.59759 2.60902,-1.59652 1.0506,0.001 1.78094,0.55774 2.26874,1.23049 0.48779,0.67274 0.74166,1.38237 0.72931,2.34568 -0.0134,1.04779 -0.45226,2.15254 -1.22657,3.01172 -0.7743,0.85918 -1.91529,1.46908 -3.27148,1.41602 -2.62875,-0.10286 -4.46393,-1.93353 -4.50586,-3.82032 -0.0265,-1.19438 0.54113,-2.10438 1.29688,-2.8164 0.75574,-0.71202 2.60582,-1.31168 2.60582,-1.31168 z"
       id="path5611-6"
       inkscape:connector-curvature="0"
       sodipodi:nodetypes="sssssssssscsssssssss" />
    <ellipse
       style="fill:#000000;fill-opacity:1;stroke:none;stroke-width:0.49999997;stroke-linecap:round;stroke-linejoin:round;stroke-miterlimit:4;stroke-dasharray:none;stroke-dashoffset:0;stroke-opacity:1"
       id="path5619-3"
       cx="-116.82401"
       cy="103.24846"
       rx="1.5085987"
       ry="1.4683125"
       transform="scale(-1,1)" />
    <path
       style="color:#000000;font-style:normal;font-variant:normal;font-weight:normal;font-stretch:normal;font-size:medium;line-height:normal;font-family:sans-serif;font-variant-ligatures:normal;font-variant-position:normal;font-variant-caps:normal;font-variant-numeric:normal;font-variant-alternates:normal;font-feature-settings:normal;text-indent:0;text-align:start;text-decoration:none;text-decoration-line:none;text-decoration-style:solid;text-decoration-color:#000000;letter-spacing:normal;word-spacing:normal;text-transform:none;writing-mode:lr-tb;direction:ltr;text-orientation:mixed;dominant-baseline:auto;baseline-shift:baseline;text-anchor:start;white-space:normal;shape-padding:0;clip-rule:nonzero;display:inline;overflow:visible;visibility:visible;opacity:1;isolation:auto;mix-blend-mode:normal;color-interpolation:sRGB;color-interpolation-filters:linearRGB;solid-color:#000000;solid-opacity:1;vector-effect:none;fill:#000000;fill-opacity:1;fill-rule:nonzero;stroke:none;stroke-width:1px;stroke-linecap:butt;stroke-linejoin:miter;stroke-miterlimit:4;stroke-dasharray:none;stroke-dashoffset:0;stroke-opacity:1;color-rendering:auto;image-rendering:auto;shape-rendering:auto;text-rendering:auto;enable-background:accumulate"
       d="m 112.04918,106.88549 c 1.08614,-0.026 2.10129,0.40047 2.85742,1.01758 0.75613,0.61711 1.29378,1.32174 1.26367,2.32227 -0.0232,0.77104 -0.23701,1.45056 -0.71484,1.94531 -0.47784,0.49475 -1.1723,0.7614 -2.04102,0.86328 1.14797,-1.35729 0.79229,-3.43735 0.41718,-4.1945 -0.33647,-0.67915 -0.95576,-0.97316 -1.75898,-0.95394 -2.01773,0.0483 -3.27901,1.5986 -3.30664,2.8418 -0.041,1.84662 1.1311,3.57467 3.35401,4.40282 l -0.27979,0.40221 c -2.49666,-0.93014 -4.12377,-2.5088 -4.07226,-4.82652 0.0415,-1.86682 1.76769,-3.76017 4.28125,-3.82031 z"
       id="path5611-9-5"
       inkscape:connector-curvature="0"
       sodipodi:nodetypes="sssscsssccss" />
    <path
       style="color:#000000;font-style:normal;font-variant:normal;font-weight:normal;font-stretch:normal;font-size:medium;line-height:normal;font-family:sans-serif;font-variant-ligatures:normal;font-variant-position:normal;font-variant-caps:normal;font-variant-numeric:normal;font-variant-alternates:normal;font-feature-settings:normal;text-indent:0;text-align:start;text-decoration:none;text-decoration-line:none;text-decoration-style:solid;text-decoration-color:#000000;letter-spacing:normal;word-spacing:normal;text-transform:none;writing-mode:lr-tb;direction:ltr;text-orientation:mixed;dominant-baseline:auto;baseline-shift:baseline;text-anchor:start;white-space:normal;shape-padding:0;clip-rule:nonzero;display:inline;overflow:visible;visibility:visible;opacity:1;isolation:auto;mix-blend-mode:normal;color-interpolation:sRGB;color-interpolation-filters:linearRGB;solid-color:#000000;solid-opacity:1;vector-effect:none;fill:#000000;fill-opacity:1;fill-rule:nonzero;stroke:none;stroke-width:1px;stroke-linecap:butt;stroke-linejoin:miter;stroke-miterlimit:4;stroke-dasharray:none;stroke-dashoffset:0;stroke-opacity:1;color-rendering:auto;image-rendering:auto;shape-rendering:auto;text-rendering:auto;enable-background:accumulate"
       d="M 12.093403,28.97194 C 8.9646127,28.98667 5.7947458,26.6269 5.6246531,21.83327 c -0.06551,-1.84621 0.5262465,-4.24007 1.890625,-6.23828 1.3643832,-1.99822 3.5552569,-3.58896 6.5703129,-3.62305 2.086019,-0.0236 3.664917,0.50376 5.166015,1.00977 1.501099,0.50601 2.925061,0.99023 4.839844,0.99023 1.91694,0 3.296286,-0.47845 4.183594,-1.20508 0.887308,-0.72663 1.316406,-1.70128 1.316406,-2.85351 0,-1.74324 -1.263467,-3.10547 -3.433594,-3.10547 -0.986001,0 -1.771279,0.28297 -2.302734,0.75 -0.53145,0.46702 -0.837891,1.119 -0.837891,1.99609 0,1.17593 0.782281,2.08738 1.524412,2.16948 0.259195,0.0287 0.735226,0.10122 0.890536,-0.18344 0.186824,-0.34242 -0.144486,-0.58922 -0.425251,-1.06298 -0.40403,-0.68175 0.580477,-1.03661 -0.3941,-2.17056 0,0 0.956904,-0.0987 1.370229,0.32756 0.413325,0.42627 0.867922,1.11681 0.895504,1.88088 0.03711,1.02799 -0.908336,1.9926 -2.326171,1.98437 -1.375202,-0.008 -2.535157,-1.30262 -2.535157,-2.94531 0,-1.12291 0.432645,-2.09157 1.179688,-2.74805 0.747039,-0.65647 1.78286,-0.99804 2.960937,-0.99804 2.617454,0 4.433594,1.8487 4.433594,4.10547 0,1.4122 -0.570904,2.71771 -1.683594,3.6289 -1.112696,0.9112 -2.733348,1.42969 -4.816408,1.42969 -2.085217,0 -3.661191,-0.53768 -5.160156,-1.04297 -1.498966,-0.50529 -2.92026,-0.97865 -4.833985,-0.95703 -2.674624,0.0302 -4.5285493,1.39003 -5.755859,3.1875 -1.2273097,1.79747 -1.7733613,4.04455 -1.7167969,5.63867 0.1554561,4.38113 2.8201514,6.18646 5.4648439,6.17383 1.219466,-0.006 2.061743,-0.44817 2.634765,-1.09766 0.573023,-0.64949 0.867188,-1.52986 0.867188,-2.40234 0,-0.90184 -0.259982,-1.65555 -0.771484,-2.18359 -0.511506,-0.52805 -1.296751,-0.86821 -2.490235,-0.85352 -0.894654,0.011 -1.804805,0.47353 -2.123468,1.125 -0.3186625,0.65147 -0.2832537,1.65404 0.18516,2.40236 l -0.5851292,0.36522 c -0.6475292,-1.03447 -0.6729131,-2.2466 -0.203125,-3.20703 0.4697882,-0.96043 1.4603232,-1.67012 2.7128902,-1.68555 1.397213,-0.0172 2.497513,0.40961 3.222657,1.1582 0.725148,0.7486 1.052734,1.78075 1.052734,2.87891 0,1.0947 -0.362364,2.2089 -1.117188,3.06445 -0.754823,0.85555 -1.911708,1.428635 -3.380859,1.43555 z"
       id="path5609-2"
       inkscape:connector-curvature="0"
       sodipodi:nodetypes="sssssssssssssscsssssssssssssssssssccssssss" />
    <path
       style="color:#000000;font-style:normal;font-variant:normal;font-weight:normal;font-stretch:normal;font-size:medium;line-height:normal;font-family:sans-serif;font-variant-ligatures:normal;font-variant-position:normal;font-variant-caps:normal;font-variant-numeric:normal;font-variant-alternates:normal;font-feature-settings:normal;text-indent:0;text-align:start;text-decoration:none;text-decoration-line:none;text-decoration-style:solid;text-decoration-color:#000000;letter-spacing:normal;word-spacing:normal;text-transform:none;writing-mode:lr-tb;direction:ltr;text-orientation:mixed;dominant-baseline:auto;baseline-shift:baseline;text-anchor:start;white-space:normal;shape-padding:0;clip-rule:nonzero;display:inline;overflow:visible;visibility:visible;opacity:1;isolation:auto;mix-blend-mode:normal;color-interpolation:sRGB;color-interpolation-filters:linearRGB;solid-color:#000000;solid-opacity:1;vector-effect:none;fill:#000000;fill-opacity:1;fill-rule:nonzero;stroke:none;stroke-width:1px;stroke-linecap:butt;stroke-linejoin:miter;stroke-miterlimit:4;stroke-dasharray:none;stroke-dashoffset:0;stroke-opacity:1;color-rendering:auto;image-rendering:auto;shape-rendering:auto;text-rendering:auto;enable-background:accumulate"
       d="M 10.569612,13.70354 9.8015814,13.5639 c 0,0 2.1428206,-1.12979 2.7867546,-1.73647 0.643939,-0.60669 1.166232,-1.4392 1.1465,-2.32699 C 13.707646,8.27721 12.10796,6.57792 9.9273875,6.49262 8.8866143,6.45192 7.6555747,7.0983 7.0453162,7.77545 6.4350578,8.4526 6.1500736,9.42794 6.1402447,10.1946 c -0.010785,0.84122 0.3074019,1.53382 0.6054855,1.94493 0.2980791,0.4111 0.4350694,0.78252 1.2612981,0.7836 0.5651162,7.4e-4 0.6809268,-0.995 0.8792435,-1.62782 0.3517571,-1.12244 1.4554152,-0.35975 2.0109942,-1.90269 0.44502,1.02579 0.673805,1.99494 0.178205,2.76991 C 10.579867,12.93751 9.4175797,13.76012 8.46645,13.75905 7.4158468,13.75805 6.6855055,13.20131 6.19771,12.52856 5.7099193,11.85582 5.456053,11.14619 5.4684031,10.18288 5.4818361,9.13509 5.9206567,8.03034 6.6949656,7.17116 7.4692746,6.31198 8.6102594,5.70208 9.96645,5.75514 c 2.628755,0.10286 4.463929,1.93353 4.505859,3.82032 0.02654,1.19438 -0.541133,2.10438 -1.296875,2.8164 -0.755741,0.71202 -2.605822,1.31168 -2.605822,1.31168 z"
       id="path5611-1"
       inkscape:connector-curvature="0"
       sodipodi:nodetypes="sssssssssscsssssssss" />
    <ellipse
       style="fill:#000000;fill-opacity:1;stroke:none;stroke-width:0.49999997;stroke-linecap:round;stroke-linejoin:round;stroke-miterlimit:4;stroke-dasharray:none;stroke-dashoffset:0;stroke-opacity:1"
       id="path5619-2"
       cx="11.175998"
       cy="-24.751549"
       rx="1.5085987"
       ry="1.4683125"
       transform="scale(1,-1)" />
    <path
       style="color:#000000;font-style:normal;font-variant:normal;font-weight:normal;font-stretch:normal;font-size:medium;line-height:normal;font-family:sans-serif;font-variant-ligatures:normal;font-variant-position:normal;font-variant-caps:normal;font-variant-numeric:normal;font-variant-alternates:normal;font-feature-settings:normal;text-indent:0;text-align:start;text-decoration:none;text-decoration-line:none;text-decoration-style:solid;text-decoration-color:#000000;letter-spacing:normal;word-spacing:normal;text-transform:none;writing-mode:lr-tb;direction:ltr;text-orientation:mixed;dominant-baseline:auto;baseline-shift:baseline;text-anchor:start;white-space:normal;shape-padding:0;clip-rule:nonzero;display:inline;overflow:visible;visibility:visible;opacity:1;isolation:auto;mix-blend-mode:normal;color-interpolation:sRGB;color-interpolation-filters:linearRGB;solid-color:#000000;solid-opacity:1;vector-effect:none;fill:#000000;fill-opacity:1;fill-rule:nonzero;stroke:none;stroke-width:1px;stroke-linecap:butt;stroke-linejoin:miter;stroke-miterlimit:4;stroke-dasharray:none;stroke-dashoffset:0;stroke-opacity:1;color-rendering:auto;image-rendering:auto;shape-rendering:auto;text-rendering:auto;enable-background:accumulate"
       d="m 15.950825,21.11452 c -1.086145,0.026 -2.101294,-0.40047 -2.857422,-1.01758 -0.756128,-0.61711 -1.293786,-1.32174 -1.263672,-2.32227 0.02321,-0.77104 0.237007,-1.45056 0.714844,-1.94531 0.477837,-0.49475 1.172291,-0.7614 2.041016,-0.86328 -1.147967,1.35729 -0.792292,3.43735 -0.417176,4.1945 0.336469,0.67915 0.955759,0.97316 1.758973,0.95394 2.017729,-0.0483 3.27901,-1.5986 3.30664,-2.8418 0.04104,-1.84662 -1.131101,-3.57467 -3.354007,-4.40282 l 0.279788,-0.40221 c 2.496666,0.93014 4.123773,2.5088 4.072266,4.82652 -0.04149,1.86682 -1.76769,3.76017 -4.28125,3.82031 z"
       id="path5611-9-2"
       inkscape:connector-curvature="0"
       sodipodi:nodetypes="sssscsssccss" />
    <path
       style="color:#000000;font-style:normal;font-variant:normal;font-weight:normal;font-stretch:normal;font-size:medium;line-height:normal;font-family:sans-serif;font-variant-ligatures:normal;font-variant-position:normal;font-variant-caps:normal;font-variant-numeric:normal;font-variant-alternates:normal;font-feature-settings:normal;text-indent:0;text-align:start;text-decoration:none;text-decoration-line:none;text-decoration-style:solid;text-decoration-color:#000000;letter-spacing:normal;word-spacing:normal;text-transform:none;writing-mode:lr-tb;direction:ltr;text-orientation:mixed;dominant-baseline:auto;baseline-shift:baseline;text-anchor:start;white-space:normal;shape-padding:0;clip-rule:nonzero;display:inline;overflow:visible;visibility:visible;opacity:1;isolation:auto;mix-blend-mode:normal;color-interpolation:sRGB;color-interpolation-filters:linearRGB;solid-color:#000000;solid-opacity:1;vector-effect:none;fill:#000000;fill-opacity:1;fill-rule:nonzero;stroke:none;stroke-width:1px;stroke-linecap:butt;stroke-linejoin:miter;stroke-miterlimit:4;stroke-dasharray:none;stroke-dashoffset:0;stroke-opacity:1;color-rendering:auto;image-rendering:auto;shape-rendering:auto;text-rendering:auto;enable-background:accumulate"
       d="m 115.9066,28.971934 c 3.12879,0.01473 6.29865,-2.34504 6.46875,-7.13867 0.0655,-1.84621 -0.52625,-4.24007 -1.89063,-6.23828 -1.36438,-1.99822 -3.55525,-3.58896 -6.57031,-3.62305 -2.08602,-0.0236 -3.66492,0.50376 -5.16602,1.00977 -1.50109,0.50601 -2.92506,0.99023 -4.83984,0.99023 -1.91694,0 -3.29629,-0.47845 -4.183594,-1.20508 -0.887308,-0.72663 -1.316406,-1.70128 -1.316406,-2.85351 0,-1.74324 1.263467,-3.10547 3.43359,-3.10547 0.98601,0 1.77128,0.28297 2.30274,0.75 0.53145,0.46702 0.83789,1.119 0.83789,1.99609 0,1.17593 -0.78228,2.08738 -1.52441,2.16948 -0.2592,0.0287 -0.73523,0.10122 -0.89054,-0.18344 -0.18682,-0.34242 0.14449,-0.58922 0.42525,-1.06298 0.40403,-0.68175 -0.58047,-1.03661 0.3941,-2.17056 0,0 -0.9569,-0.0987 -1.37023,0.32756 -0.41332,0.42627 -0.86792,1.11681 -0.8955,1.88088 -0.0371,1.02799 0.90834,1.9926 2.32617,1.98437 1.3752,-0.008 2.53516,-1.30262 2.53516,-2.94531 0,-1.12291 -0.43265,-2.09157 -1.17969,-2.74805 -0.74704,-0.65647 -1.78286,-0.99804 -2.96094,-0.99804 -2.617452,0 -4.433592,1.8487 -4.433592,4.10547 0,1.4122 0.570904,2.71771 1.683594,3.6289 1.112698,0.9112 2.733348,1.42969 4.816408,1.42969 2.08522,0 3.66119,-0.53768 5.16016,-1.04297 1.49896,-0.50529 2.92026,-0.97865 4.83398,-0.95703 2.67463,0.0302 4.52855,1.39003 5.75586,3.1875 1.22731,1.79747 1.77336,4.04455 1.7168,5.63867 -0.15546,4.38113 -2.82015,6.18646 -5.46485,6.17383 -1.21946,-0.006 -2.06174,-0.44817 -2.63476,-1.09766 -0.57303,-0.64949 -0.86719,-1.52986 -0.86719,-2.40234 0,-0.90184 0.25998,-1.65555 0.77148,-2.18359 0.51151,-0.52805 1.29676,-0.86821 2.49024,-0.85352 0.89465,0.011 1.8048,0.47353 2.12347,1.125 0.31866,0.65147 0.28325,1.65404 -0.18516,2.40236 l 0.58513,0.36522 c 0.64753,-1.03447 0.67291,-2.2466 0.20312,-3.20703 -0.46979,-0.96043 -1.46032,-1.67012 -2.71289,-1.68555 -1.39721,-0.0172 -2.49751,0.40961 -3.22266,1.1582 -0.72514,0.7486 -1.05273,1.78075 -1.05273,2.87891 0,1.0947 0.36236,2.2089 1.11719,3.06445 0.75482,0.85555 1.91171,1.428635 3.38086,1.43555 z"
       id="path5609-0-0"
       inkscape:connector-curvature="0"
       sodipodi:nodetypes="sssssssssssssscsssssssssssssssssssccssssss" />
    <path
       style="color:#000000;font-style:normal;font-variant:normal;font-weight:normal;font-stretch:normal;font-size:medium;line-height:normal;font-family:sans-serif;font-variant-ligatures:normal;font-variant-position:normal;font-variant-caps:normal;font-variant-numeric:normal;font-variant-alternates:normal;font-feature-settings:normal;text-indent:0;text-align:start;text-decoration:none;text-decoration-line:none;text-decoration-style:solid;text-decoration-color:#000000;letter-spacing:normal;word-spacing:normal;text-transform:none;writing-mode:lr-tb;direction:ltr;text-orientation:mixed;dominant-baseline:auto;baseline-shift:baseline;text-anchor:start;white-space:normal;shape-padding:0;clip-rule:nonzero;display:inline;overflow:visible;visibility:visible;opacity:1;isolation:auto;mix-blend-mode:normal;color-interpolation:sRGB;color-interpolation-filters:linearRGB;solid-color:#000000;solid-opacity:1;vector-effect:none;fill:#000000;fill-opacity:1;fill-rule:nonzero;stroke:none;stroke-width:1px;stroke-linecap:butt;stroke-linejoin:miter;stroke-miterlimit:4;stroke-dasharray:none;stroke-dashoffset:0;stroke-opacity:1;color-rendering:auto;image-rendering:auto;shape-rendering:auto;text-rendering:auto;enable-background:accumulate"
       d="m 117.43039,13.703534 0.76803,-0.13964 c 0,0 -2.14282,-1.12979 -2.78676,-1.73647 -0.64393,-0.60669 -1.16623,-1.4392 -1.1465,-2.32699 0.0272,-1.22323 1.62688,-2.92252 3.80745,-3.00782 1.04078,-0.0407 2.27182,0.60568 2.88207,1.28283 0.61026,0.67715 0.89525,1.65249 0.90508,2.41915 0.0108,0.84122 -0.30741,1.53382 -0.60549,1.94493 -0.29808,0.4111 -0.43507,0.78252 -1.2613,0.7836 -0.56511,7.4e-4 -0.68093,-0.995 -0.87924,-1.62782 -0.35176,-1.12244 -1.45542,-0.35975 -2.011,-1.90269 -0.44502,1.02579 -0.6738,1.99494 -0.1782,2.76991 0.4956,0.77498 1.65789,1.59759 2.60902,1.59652 1.0506,-10e-4 1.78094,-0.55774 2.26874,-1.23049 0.48779,-0.67274 0.74166,-1.38237 0.72931,-2.34568 -0.0134,-1.04779 -0.45226,-2.15254 -1.22657,-3.01172 -0.7743,-0.85918 -1.91529,-1.46908 -3.27148,-1.41602 -2.62875,0.10286 -4.46393,1.93353 -4.50586,3.82032 -0.0265,1.19438 0.54113,2.10438 1.29688,2.8164 0.75574,0.71202 2.60582,1.31168 2.60582,1.31168 z"
       id="path5611-6-6"
       inkscape:connector-curvature="0"
       sodipodi:nodetypes="sssssssssscsssssssss" />
    <ellipse
       style="fill:#000000;fill-opacity:1;stroke:none;stroke-width:0.49999997;stroke-linecap:round;stroke-linejoin:round;stroke-miterlimit:4;stroke-dasharray:none;stroke-dashoffset:0;stroke-opacity:1"
       id="path5619-3-7"
       cx="-116.82401"
       cy="-24.751543"
       rx="1.5085987"
       ry="1.4683125"
       transform="scale(-1)" />
    <path
       style="color:#000000;font-style:normal;font-variant:normal;font-weight:normal;font-stretch:normal;font-size:medium;line-height:normal;font-family:sans-serif;font-variant-ligatures:normal;font-variant-position:normal;font-variant-caps:normal;font-variant-numeric:normal;font-variant-alternates:normal;font-feature-settings:normal;text-indent:0;text-align:start;text-decoration:none;text-decoration-line:none;text-decoration-style:solid;text-decoration-color:#000000;letter-spacing:normal;word-spacing:normal;text-transform:none;writing-mode:lr-tb;direction:ltr;text-orientation:mixed;dominant-baseline:auto;baseline-shift:baseline;text-anchor:start;white-space:normal;shape-padding:0;clip-rule:nonzero;display:inline;overflow:visible;visibility:visible;opacity:1;isolation:auto;mix-blend-mode:normal;color-interpolation:sRGB;color-interpolation-filters:linearRGB;solid-color:#000000;solid-opacity:1;vector-effect:none;fill:#000000;fill-opacity:1;fill-rule:nonzero;stroke:none;stroke-width:1px;stroke-linecap:butt;stroke-linejoin:miter;stroke-miterlimit:4;stroke-dasharray:none;stroke-dashoffset:0;stroke-opacity:1;color-rendering:auto;image-rendering:auto;shape-rendering:auto;text-rendering:auto;enable-background:accumulate"
       d="m 112.04918,21.114514 c 1.08614,0.026 2.10129,-0.40047 2.85742,-1.01758 0.75613,-0.61711 1.29378,-1.32174 1.26367,-2.32227 -0.0232,-0.77104 -0.23701,-1.45056 -0.71484,-1.94531 -0.47784,-0.49475 -1.1723,-0.7614 -2.04102,-0.86328 1.14797,1.35729 0.79229,3.43735 0.41718,4.1945 -0.33647,0.67915 -0.95576,0.97316 -1.75898,0.95394 -2.01773,-0.0483 -3.27901,-1.5986 -3.30664,-2.8418 -0.041,-1.84662 1.1311,-3.57467 3.35401,-4.40282 l -0.27979,-0.40221 c -2.49666,0.93014 -4.12377,2.5088 -4.07226,4.82652 0.0415,1.86682 1.76769,3.76017 4.28125,3.82031 z"
       id="path5611-9-5-8"
       inkscape:connector-curvature="0"
       sodipodi:nodetypes="sssscsssccss" />
  </g>
</svg>
