<?xml version="1.0" encoding="UTF-8" standalone="no"?>
<!-- Created with Inkscape (http://www.inkscape.org/) -->

<svg
   xmlns:dc="http://purl.org/dc/elements/1.1/"
   xmlns:cc="http://creativecommons.org/ns#"
   xmlns:rdf="http://www.w3.org/1999/02/22-rdf-syntax-ns#"
   xmlns:svg="http://www.w3.org/2000/svg"
   xmlns="http://www.w3.org/2000/svg"
   xmlns:sodipodi="http://sodipodi.sourceforge.net/DTD/sodipodi-0.dtd"
   xmlns:inkscape="http://www.inkscape.org/namespaces/inkscape"
   width="480"
   height="480"
   viewBox="0 0 480 480"
   version="1.1"
   id="svg4095"
   inkscape:version="0.92.4 (5da689c313, 2019-01-14)"
   sodipodi:docname="thanks.svg">
  <defs
     id="defs4089" />
  <sodipodi:namedview
     id="base"
     pagecolor="#ffffff"
     bordercolor="#666666"
     borderopacity="1.0"
     inkscape:pageopacity="0.0"
     inkscape:pageshadow="2"
     inkscape:zoom="1.0489002"
     inkscape:cx="205.07024"
     inkscape:cy="208.91284"
     inkscape:document-units="px"
     inkscape:current-layer="layer1"
     showgrid="false"
     units="px"
     inkscape:window-width="1920"
     inkscape:window-height="1137"
     inkscape:window-x="-8"
     inkscape:window-y="-8"
     inkscape:window-maximized="1" />
  <metadata
     id="metadata4092">
    <rdf:RDF>
      <cc:Work
         rdf:about="">
        <dc:format>image/svg+xml</dc:format>
        <dc:type
           rdf:resource="http://purl.org/dc/dcmitype/StillImage" />
        <dc:title></dc:title>
      </cc:Work>
    </rdf:RDF>
  </metadata>
  <g
     inkscape:label="レイヤー 1"
     inkscape:groupmode="layer"
     id="layer1"
     transform="translate(0,-169.99999)">
    <g
       aria-label="Completed all levels
Thank you for Playing! "
       style="font-style:normal;font-variant:normal;font-weight:normal;font-stretch:normal;font-size:13.33333302px;line-height:1;font-family:'Times New Roman';-inkscape-font-specification:'Times New Roman, ';text-align:center;letter-spacing:0px;word-spacing:0px;writing-mode:lr-tb;text-anchor:middle;fill:#000000;fill-opacity:1;stroke:none"
       id="text16315">
      <path
         d="m 128.92088,561.01007 v -6.288 c 0,-2.4 -1.968,-4.512 -4.368,-4.512 h -4.368 c -2.4,0 -4.368,2.112 -4.368,4.512 v 25.152 c 0,2.4 1.968,4.512 4.368,4.512 h 4.56 c 2.304,0 4.176,-2.16 4.176,-4.512 v -7.248 h -1.968 v 7.248 c 0,1.44 -0.96,2.88 -2.4,2.88 h -4.368 c -1.44,0 -2.4,-1.44 -2.4,-2.88 v -25.152 c 0,-1.44 0.96,-3.072 2.4,-3.072 h 4.368 c 1.44,0 2.4,1.632 2.4,3.072 v 6.288 z"
         style="font-style:normal;font-variant:normal;font-weight:normal;font-stretch:normal;font-size:48px;line-height:1;font-family:'RBNo2 Light';-inkscape-font-specification:'RBNo2 Light, '"
         id="path16327" />
      <path
         d="m 142.16888,559.95407 -0.384,-0.048 h -5.328 c -1.584,0 -2.88,1.44 -2.88,3.072 v 18.24 c 0,1.44 1.104,2.832 2.496,2.976 l 0.384,0.048 h 5.328 c 1.632,0 2.928,-1.44 2.928,-3.024 v -18.24 c 0,-1.488 -1.104,-2.832 -2.544,-3.024 z m -5.184,22.848 c -0.192,0 -0.336,-0.048 -0.528,-0.096 -0.528,-0.192 -0.96,-0.864 -0.96,-1.488 v -18.24 c 0,-0.672 0.432,-1.344 0.96,-1.536 0.192,-0.048 0.336,-0.096 0.528,-0.096 h 4.32 c 0.192,0 0.336,0.048 0.48,0.096 0.576,0.192 0.96,0.864 0.96,1.536 v 18.24 c 0,0.624 -0.384,1.296 -0.96,1.488 -0.144,0.048 -0.288,0.096 -0.48,0.096 z"
         style="font-style:normal;font-variant:normal;font-weight:normal;font-stretch:normal;font-size:48px;line-height:1;font-family:'RBNo2 Light';-inkscape-font-specification:'RBNo2 Light, '"
         id="path16329" />
      <path
         d="m 167.71088,559.90607 h -7.248 -1.968 -7.248 c -1.056,0 -1.92,1.008 -1.92,2.064 v 22.272 h 1.92 v -22.272 c 0,-0.24 0.24,-0.624 0.48,-0.624 h 6.768 v 0.48 22.416 h 1.968 v -22.416 -0.48 h 6.768 c 0.24,0 0.48,0.384 0.48,0.624 v 22.272 h 1.92 v -22.272 c 0,-1.056 -0.864,-2.064 -1.92,-2.064 z"
         style="font-style:normal;font-variant:normal;font-weight:normal;font-stretch:normal;font-size:48px;line-height:1;font-family:'RBNo2 Light';-inkscape-font-specification:'RBNo2 Light, '"
         id="path16331" />
      <path
         d="m 183.52613,560.05007 h -7.248 -1.92 v 31.92 h 1.92 v -7.728 h 6.288 c 1.632,0 2.928,-1.296 2.928,-2.928 v -19.344 c 0,-1.056 -0.864,-1.92 -1.968,-1.92 z m -7.248,1.44 h 6.768 c 0.288,0 0.48,0.24 0.48,0.48 v 19.344 c 0,0.672 -0.384,1.2 -0.96,1.392 -0.144,0.048 -0.288,0.096 -0.48,0.096 h -5.808 z"
         style="font-style:normal;font-variant:normal;font-weight:normal;font-stretch:normal;font-size:48px;line-height:1;font-family:'RBNo2 Light';-inkscape-font-specification:'RBNo2 Light, '"
         id="path16333" />
      <path
         d="m 192.22013,584.24207 v -33.888 h -1.968 v 33.888 z"
         style="font-style:normal;font-variant:normal;font-weight:normal;font-stretch:normal;font-size:48px;line-height:1;font-family:'RBNo2 Light';-inkscape-font-specification:'RBNo2 Light, '"
         id="path16335" />
      <path
         d="m 205.05938,559.90607 h -0.48 -4.32 -0.528 c -1.584,0 -2.88,1.44 -2.88,3.072 v 7.728 1.44 9.072 c 0,1.584 1.296,3.024 2.88,3.024 h 0.432 0.096 l 3.84,-0.048 h 0.048 0.432 c 1.632,0 2.928,-1.44 2.928,-3.024 v -5.184 h -1.968 v 5.184 c 0,0.624 -0.384,1.296 -0.96,1.488 -0.144,0.048 -0.288,0.096 -0.48,0.096 l -3.84,0.048 c -0.192,0 -0.336,-0.048 -0.528,-0.096 -0.528,-0.192 -0.96,-0.864 -0.96,-1.488 v -9.072 h 7.248 1.968 v -1.44 -7.728 c 0,-1.632 -1.296,-3.072 -2.928,-3.072 z m -6.288,10.8 v -7.728 c 0,-0.672 0.432,-1.344 0.96,-1.536 0.192,-0.048 0.336,-0.096 0.528,-0.096 h 4.32 c 0.192,0 0.336,0.048 0.48,0.096 0.576,0.192 0.96,0.864 0.96,1.536 v 7.728 z"
         style="font-style:normal;font-variant:normal;font-weight:normal;font-stretch:normal;font-size:48px;line-height:1;font-family:'RBNo2 Light';-inkscape-font-specification:'RBNo2 Light, '"
         id="path16337" />
      <path
         d="m 216.41138,582.80207 c -0.192,0 -0.336,-0.048 -0.48,-0.096 -0.576,-0.192 -0.96,-0.72 -0.96,-1.392 v -19.824 h 2.88 v -1.488 h -2.88 v -6.768 h -1.968 v 6.768 h -2.88 v 1.488 h 2.88 v 19.824 c 0,1.632 1.296,2.928 2.928,2.928 h 0.48 1.92 v -1.44 z"
         style="font-style:normal;font-variant:normal;font-weight:normal;font-stretch:normal;font-size:48px;line-height:1;font-family:'RBNo2 Light';-inkscape-font-specification:'RBNo2 Light, '"
         id="path16339" />
      <path
         d="m 229.05938,559.90607 h -0.48 -4.32 -0.528 c -1.584,0 -2.88,1.44 -2.88,3.072 v 7.728 1.44 9.072 c 0,1.584 1.296,3.024 2.88,3.024 h 0.432 0.096 l 3.84,-0.048 h 0.048 0.432 c 1.632,0 2.928,-1.44 2.928,-3.024 v -5.184 h -1.968 v 5.184 c 0,0.624 -0.384,1.296 -0.96,1.488 -0.144,0.048 -0.288,0.096 -0.48,0.096 l -3.84,0.048 c -0.192,0 -0.336,-0.048 -0.528,-0.096 -0.528,-0.192 -0.96,-0.864 -0.96,-1.488 v -9.072 h 7.248 1.968 v -1.44 -7.728 c 0,-1.632 -1.296,-3.072 -2.928,-3.072 z m -6.288,10.8 v -7.728 c 0,-0.672 0.432,-1.344 0.96,-1.536 0.192,-0.048 0.336,-0.096 0.528,-0.096 h 4.32 c 0.192,0 0.336,0.048 0.48,0.096 0.576,0.192 0.96,0.864 0.96,1.536 v 7.728 z"
         style="font-style:normal;font-variant:normal;font-weight:normal;font-stretch:normal;font-size:48px;line-height:1;font-family:'RBNo2 Light';-inkscape-font-specification:'RBNo2 Light, '"
         id="path16341" />
      <path
         d="m 238.01138,560.05007 c -1.056,0 -1.92,0.864 -1.92,1.92 v 19.248 c 0,1.584 1.296,3.024 2.928,3.024 h 6.288 1.92 v -33.888 h -1.92 v 9.696 z m 7.296,22.752 h -5.808 c -0.192,0 -0.336,-0.048 -0.48,-0.096 -0.576,-0.192 -1.008,-0.864 -1.008,-1.488 v -19.248 c 0,-0.24 0.24,-0.48 0.528,-0.48 h 6.768 z"
         style="font-style:normal;font-variant:normal;font-weight:normal;font-stretch:normal;font-size:48px;line-height:1;font-family:'RBNo2 Light';-inkscape-font-specification:'RBNo2 Light, '"
         id="path16343" />
      <path
         d="m 268.37738,559.90607 h -0.432 -0.048 -3.84 -0.48 c -1.632,0 -2.928,1.44 -2.928,3.072 v 3.36 h 1.92 v -3.36 c 0,-0.672 0.432,-1.344 1.008,-1.536 0.144,-0.048 0.288,-0.096 0.48,-0.096 h 3.84 c 0.192,0 0.336,0.048 0.48,0.096 0.576,0.192 0.96,0.864 0.96,1.536 v 6.288 h -5.76 -0.528 c -1.584,0 -2.88,1.296 -2.88,2.88 v 9.072 c 0,1.584 1.296,3.024 2.88,3.024 h 0.528 5.76 1.968 v -1.44 -19.824 c 0,-1.632 -1.296,-3.072 -2.928,-3.072 z m 0.96,22.896 h -5.76 c -0.192,0 -0.336,-0.048 -0.528,-0.096 -0.528,-0.192 -0.96,-0.864 -0.96,-1.488 v -9.072 c 0,-0.624 0.432,-1.152 0.96,-1.344 0.192,-0.048 0.336,-0.096 0.528,-0.096 h 5.76 z"
         style="font-style:normal;font-variant:normal;font-weight:normal;font-stretch:normal;font-size:48px;line-height:1;font-family:'RBNo2 Light';-inkscape-font-specification:'RBNo2 Light, '"
         id="path16345" />
      <path
         d="m 278.00138,584.24207 v -33.888 h -1.968 v 33.888 z"
         style="font-style:normal;font-variant:normal;font-weight:normal;font-stretch:normal;font-size:48px;line-height:1;font-family:'RBNo2 Light';-inkscape-font-specification:'RBNo2 Light, '"
         id="path16347" />
      <path
         d="m 285.03263,584.24207 v -33.888 h -1.968 v 33.888 z"
         style="font-style:normal;font-variant:normal;font-weight:normal;font-stretch:normal;font-size:48px;line-height:1;font-family:'RBNo2 Light';-inkscape-font-specification:'RBNo2 Light, '"
         id="path16349" />
      <path
         d="m 301.06388,584.24207 v -33.888 h -1.968 v 33.888 z"
         style="font-style:normal;font-variant:normal;font-weight:normal;font-stretch:normal;font-size:48px;line-height:1;font-family:'RBNo2 Light';-inkscape-font-specification:'RBNo2 Light, '"
         id="path16351" />
      <path
         d="m 313.90313,559.90607 h -0.48 -4.32 -0.528 c -1.584,0 -2.88,1.44 -2.88,3.072 v 7.728 1.44 9.072 c 0,1.584 1.296,3.024 2.88,3.024 h 0.432 0.096 l 3.84,-0.048 h 0.048 0.432 c 1.632,0 2.928,-1.44 2.928,-3.024 v -5.184 h -1.968 v 5.184 c 0,0.624 -0.384,1.296 -0.96,1.488 -0.144,0.048 -0.288,0.096 -0.48,0.096 l -3.84,0.048 c -0.192,0 -0.336,-0.048 -0.528,-0.096 -0.528,-0.192 -0.96,-0.864 -0.96,-1.488 v -9.072 h 7.248 1.968 v -1.44 -7.728 c 0,-1.632 -1.296,-3.072 -2.928,-3.072 z m -6.288,10.8 v -7.728 c 0,-0.672 0.432,-1.344 0.96,-1.536 0.192,-0.048 0.336,-0.096 0.528,-0.096 h 4.32 c 0.192,0 0.336,0.048 0.48,0.096 0.576,0.192 0.96,0.864 0.96,1.536 v 7.728 z"
         style="font-style:normal;font-variant:normal;font-weight:normal;font-stretch:normal;font-size:48px;line-height:1;font-family:'RBNo2 Light';-inkscape-font-specification:'RBNo2 Light, '"
         id="path16353" />
      <path
         d="m 329.19113,560.05007 -4.176,23.04 -4.128,-23.04 h -1.728 l 4.368,24.192 h 1.344 0.336 1.2 l 4.368,-24.192 z"
         style="font-style:normal;font-variant:normal;font-weight:normal;font-stretch:normal;font-size:48px;line-height:1;font-family:'RBNo2 Light';-inkscape-font-specification:'RBNo2 Light, '"
         id="path16355" />
      <path
         d="m 341.74688,559.90607 h -0.48 -4.32 -0.528 c -1.584,0 -2.88,1.44 -2.88,3.072 v 7.728 1.44 9.072 c 0,1.584 1.296,3.024 2.88,3.024 h 0.432 0.096 l 3.84,-0.048 h 0.048 0.432 c 1.632,0 2.928,-1.44 2.928,-3.024 v -5.184 h -1.968 v 5.184 c 0,0.624 -0.384,1.296 -0.96,1.488 -0.144,0.048 -0.288,0.096 -0.48,0.096 l -3.84,0.048 c -0.192,0 -0.336,-0.048 -0.528,-0.096 -0.528,-0.192 -0.96,-0.864 -0.96,-1.488 v -9.072 h 7.248 1.968 v -1.44 -7.728 c 0,-1.632 -1.296,-3.072 -2.928,-3.072 z m -6.288,10.8 v -7.728 c 0,-0.672 0.432,-1.344 0.96,-1.536 0.192,-0.048 0.336,-0.096 0.528,-0.096 h 4.32 c 0.192,0 0.336,0.048 0.48,0.096 0.576,0.192 0.96,0.864 0.96,1.536 v 7.728 z"
         style="font-style:normal;font-variant:normal;font-weight:normal;font-stretch:normal;font-size:48px;line-height:1;font-family:'RBNo2 Light';-inkscape-font-specification:'RBNo2 Light, '"
         id="path16357" />
      <path
         d="m 350.93888,584.24207 v -33.888 h -1.968 v 33.888 z"
         style="font-style:normal;font-variant:normal;font-weight:normal;font-stretch:normal;font-size:48px;line-height:1;font-family:'RBNo2 Light';-inkscape-font-specification:'RBNo2 Light, '"
         id="path16359" />
      <path
         d="m 363.34613,571.52207 c -1.584,-0.816 -3.696,-1.632 -4.992,-2.4 -1.008,-0.528 -1.488,-0.768 -1.488,-2.304 v -3.84 c 0,-0.672 0.432,-1.344 0.96,-1.536 0.192,-0.048 0.336,-0.096 0.528,-0.096 h 2.88 c 0.192,0 0.336,0.048 0.48,0.096 0.576,0.192 0.96,0.864 0.96,1.536 v 4.32 h 1.968 v -4.32 c 0,-1.632 -1.344,-3.072 -2.928,-3.072 h -0.48 -2.88 -0.528 c -1.584,0 -2.88,1.44 -2.88,3.072 v 3.84 c 0,1.296 0,2.688 1.92,3.696 1.776,0.864 3.36,1.536 4.8,2.304 0.816,0.432 1.488,0.912 1.488,2.256 v 6.144 c 0,0.624 -0.384,1.296 -0.96,1.488 -0.144,0.048 -0.288,0.096 -0.48,0.096 h -3.36 c -0.192,0 -0.336,-0.048 -0.528,-0.096 -0.528,-0.192 -0.96,-0.864 -0.96,-1.488 v -5.664 h -1.92 v 5.664 c 0,1.584 1.296,3.024 2.88,3.024 h 0.528 3.36 0.48 c 1.632,0 2.928,-1.44 2.928,-3.024 v -6.672 c 0,0 0,-2.16 -1.776,-3.024 z"
         style="font-style:normal;font-variant:normal;font-weight:normal;font-stretch:normal;font-size:48px;line-height:1;font-family:'RBNo2 Light';-inkscape-font-specification:'RBNo2 Light, '"
         id="path16361" />
      <path
         d="m 113.1015,598.35407 h -6.288 -1.92 -6.335995 v 1.44 h 6.335995 v 32.448 h 1.92 v -32.448 h 6.288 z"
         style="font-style:normal;font-variant:normal;font-weight:normal;font-stretch:normal;font-size:48px;line-height:1;font-family:'RBNo2 Light';-inkscape-font-specification:'RBNo2 Light, '"
         id="path16363" />
      <path
         d="m 124.9335,608.05007 h -7.296 v -9.696 h -1.92 v 33.888 h 1.92 v -22.752 h 6.768 c 0.288,0 0.528,0.24 0.528,0.48 v 22.272 h 1.92 v -22.272 c 0,-1.056 -0.864,-1.92 -1.92,-1.92 z"
         style="font-style:normal;font-variant:normal;font-weight:normal;font-stretch:normal;font-size:48px;line-height:1;font-family:'RBNo2 Light';-inkscape-font-specification:'RBNo2 Light, '"
         id="path16365" />
      <path
         d="m 138.9555,607.90607 h -0.432 -0.048 -3.84 -0.48 c -1.632,0 -2.928,1.44 -2.928,3.072 v 3.36 h 1.92 v -3.36 c 0,-0.672 0.432,-1.344 1.008,-1.536 0.144,-0.048 0.288,-0.096 0.48,-0.096 h 3.84 c 0.192,0 0.336,0.048 0.48,0.096 0.576,0.192 0.96,0.864 0.96,1.536 v 6.288 h -5.76 -0.528 c -1.584,0 -2.88,1.296 -2.88,2.88 v 9.072 c 0,1.584 1.296,3.024 2.88,3.024 h 0.528 5.76 1.968 v -1.44 -19.824 c 0,-1.632 -1.296,-3.072 -2.928,-3.072 z m 0.96,22.896 h -5.76 c -0.192,0 -0.336,-0.048 -0.528,-0.096 -0.528,-0.192 -0.96,-0.864 -0.96,-1.488 v -9.072 c 0,-0.624 0.432,-1.152 0.96,-1.344 0.192,-0.048 0.336,-0.096 0.528,-0.096 h 5.76 z"
         style="font-style:normal;font-variant:normal;font-weight:normal;font-stretch:normal;font-size:48px;line-height:1;font-family:'RBNo2 Light';-inkscape-font-specification:'RBNo2 Light, '"
         id="path16367" />
      <path
         d="m 155.6355,607.90607 h -7.248 c -1.056,0 -1.92,1.008 -1.92,2.064 v 22.272 h 1.92 v -22.272 c 0,-0.24 0.24,-0.624 0.48,-0.624 h 6.288 c 0.288,0 0.48,0.384 0.48,0.624 v 22.272 h 1.968 v -22.272 c 0,-1.056 -0.864,-2.064 -1.968,-2.064 z"
         style="font-style:normal;font-variant:normal;font-weight:normal;font-stretch:normal;font-size:48px;line-height:1;font-family:'RBNo2 Light';-inkscape-font-specification:'RBNo2 Light, '"
         id="path16369" />
      <path
         d="m 173.8335,632.24207 -6.336,-15.072 5.856,-9.12 h -1.92 l -7.392,11.28 v -20.976 h -1.824 v 33.888 h 1.824 v -9.696 l 2.304,-3.408 5.712,13.104 z"
         style="font-style:normal;font-variant:normal;font-weight:normal;font-stretch:normal;font-size:48px;line-height:1;font-family:'RBNo2 Light';-inkscape-font-specification:'RBNo2 Light, '"
         id="path16371" />
      <path
         d="m 194.96475,608.05007 -4.704,21.312 -4.176,-21.312 h -1.872 l 4.848,24.192 h 0.672 l -1.728,7.728 h 1.824 l 6.96,-31.92 z"
         style="font-style:normal;font-variant:normal;font-weight:normal;font-stretch:normal;font-size:48px;line-height:1;font-family:'RBNo2 Light';-inkscape-font-specification:'RBNo2 Light, '"
         id="path16373" />
      <path
         d="m 208.40325,607.95407 -0.384,-0.048 h -5.328 c -1.584,0 -2.88,1.44 -2.88,3.072 v 18.24 c 0,1.44 1.104,2.832 2.496,2.976 l 0.384,0.048 h 5.328 c 1.632,0 2.928,-1.44 2.928,-3.024 v -18.24 c 0,-1.488 -1.104,-2.832 -2.544,-3.024 z m -5.184,22.848 c -0.192,0 -0.336,-0.048 -0.528,-0.096 -0.528,-0.192 -0.96,-0.864 -0.96,-1.488 v -18.24 c 0,-0.672 0.432,-1.344 0.96,-1.536 0.192,-0.048 0.336,-0.096 0.528,-0.096 h 4.32 c 0.192,0 0.336,0.048 0.48,0.096 0.576,0.192 0.96,0.864 0.96,1.536 v 18.24 c 0,0.624 -0.384,1.296 -0.96,1.488 -0.144,0.048 -0.288,0.096 -0.48,0.096 z"
         style="font-style:normal;font-variant:normal;font-weight:normal;font-stretch:normal;font-size:48px;line-height:1;font-family:'RBNo2 Light';-inkscape-font-specification:'RBNo2 Light, '"
         id="path16375" />
      <path
         d="m 223.76925,608.05007 v 22.752 h -4.8 c -0.192,0 -0.336,-0.048 -0.528,-0.096 -0.528,-0.192 -0.96,-0.864 -0.96,-1.488 v -21.168 h -1.92 v 21.168 c 0,1.584 1.296,3.024 2.88,3.024 h 0.528 6.768 v -1.392 -22.8 z"
         style="font-style:normal;font-variant:normal;font-weight:normal;font-stretch:normal;font-size:48px;line-height:1;font-family:'RBNo2 Light';-inkscape-font-specification:'RBNo2 Light, '"
         id="path16377" />
      <path
         d="m 243.30975,599.89007 c 0.144,-0.048 0.336,-0.096 0.48,-0.096 h 1.92 v -1.44 h -1.92 -0.48 c -1.584,0 -2.928,1.296 -2.928,2.928 v 6.768 h -2.88 v 1.44 h 2.88 v 22.752 h 1.968 v -22.752 h 2.88 v -1.44 h -2.88 v -6.768 c 0,-0.672 0.384,-1.2 0.96,-1.392 z"
         style="font-style:normal;font-variant:normal;font-weight:normal;font-stretch:normal;font-size:48px;line-height:1;font-family:'RBNo2 Light';-inkscape-font-specification:'RBNo2 Light, '"
         id="path16379" />
      <path
         d="m 256.96575,607.95407 -0.384,-0.048 h -5.328 c -1.584,0 -2.88,1.44 -2.88,3.072 v 18.24 c 0,1.44 1.104,2.832 2.496,2.976 l 0.384,0.048 h 5.328 c 1.632,0 2.928,-1.44 2.928,-3.024 v -18.24 c 0,-1.488 -1.104,-2.832 -2.544,-3.024 z m -5.184,22.848 c -0.192,0 -0.336,-0.048 -0.528,-0.096 -0.528,-0.192 -0.96,-0.864 -0.96,-1.488 v -18.24 c 0,-0.672 0.432,-1.344 0.96,-1.536 0.192,-0.048 0.336,-0.096 0.528,-0.096 h 4.32 c 0.192,0 0.336,0.048 0.48,0.096 0.576,0.192 0.96,0.864 0.96,1.536 v 18.24 c 0,0.624 -0.384,1.296 -0.96,1.488 -0.144,0.048 -0.288,0.096 -0.48,0.096 z"
         style="font-style:normal;font-variant:normal;font-weight:normal;font-stretch:normal;font-size:48px;line-height:1;font-family:'RBNo2 Light';-inkscape-font-specification:'RBNo2 Light, '"
         id="path16381" />
      <path
         d="m 267.05175,608.05007 c -1.632,0 -2.88,1.296 -2.88,2.928 v 21.264 h 1.92 v -21.264 c 0,-0.672 0.096,-0.96 0.576,-1.344 0.336,-0.288 1.008,-0.24 4.272,-0.24 v -1.344 c -0.72,0 -3.168,0 -3.888,0 z"
         style="font-style:normal;font-variant:normal;font-weight:normal;font-stretch:normal;font-size:48px;line-height:1;font-family:'RBNo2 Light';-inkscape-font-specification:'RBNo2 Light, '"
         id="path16383" />
      <path
         d="m 291.84975,598.35407 h -6.768 -0.48 -1.488 v 33.888 h 1.968 v -15.504 h 6.768 c 2.4,0 4.368,-1.92 4.368,-4.32 v -9.696 c 0,-2.4 -1.968,-4.368 -4.368,-4.368 z m 0,16.944 h -6.768 v -15.504 h 6.768 c 1.44,0 2.4,1.488 2.4,2.928 v 9.696 c 0,1.44 -0.96,2.88 -2.4,2.88 z"
         style="font-style:normal;font-variant:normal;font-weight:normal;font-stretch:normal;font-size:48px;line-height:1;font-family:'RBNo2 Light';-inkscape-font-specification:'RBNo2 Light, '"
         id="path16385" />
      <path
         d="m 302.7045,632.24207 v -33.888 h -1.968 v 33.888 z"
         style="font-style:normal;font-variant:normal;font-weight:normal;font-stretch:normal;font-size:48px;line-height:1;font-family:'RBNo2 Light';-inkscape-font-specification:'RBNo2 Light, '"
         id="path16387" />
      <path
         d="m 315.11175,607.90607 h -0.432 -0.048 -3.84 -0.48 c -1.632,0 -2.928,1.44 -2.928,3.072 v 3.36 h 1.92 v -3.36 c 0,-0.672 0.432,-1.344 1.008,-1.536 0.144,-0.048 0.288,-0.096 0.48,-0.096 h 3.84 c 0.192,0 0.336,0.048 0.48,0.096 0.576,0.192 0.96,0.864 0.96,1.536 v 6.288 h -5.76 -0.528 c -1.584,0 -2.88,1.296 -2.88,2.88 v 9.072 c 0,1.584 1.296,3.024 2.88,3.024 h 0.528 5.76 1.968 v -1.44 -19.824 c 0,-1.632 -1.296,-3.072 -2.928,-3.072 z m 0.96,22.896 h -5.76 c -0.192,0 -0.336,-0.048 -0.528,-0.096 -0.528,-0.192 -0.96,-0.864 -0.96,-1.488 v -9.072 c 0,-0.624 0.432,-1.152 0.96,-1.344 0.192,-0.048 0.336,-0.096 0.528,-0.096 h 5.76 z"
         style="font-style:normal;font-variant:normal;font-weight:normal;font-stretch:normal;font-size:48px;line-height:1;font-family:'RBNo2 Light';-inkscape-font-specification:'RBNo2 Light, '"
         id="path16389" />
      <path
         d="m 331.83975,608.05007 -4.704,21.312 -4.176,-21.312 h -1.872 l 4.848,24.192 h 0.672 l -1.728,7.728 h 1.824 l 6.96,-31.92 z"
         style="font-style:normal;font-variant:normal;font-weight:normal;font-stretch:normal;font-size:48px;line-height:1;font-family:'RBNo2 Light';-inkscape-font-specification:'RBNo2 Light, '"
         id="path16391" />
      <path
         d="m 338.70225,608.05007 h -1.968 v 24.192 h 1.968 z m 0,-6.864 h -1.968 v 3.888 h 1.968 z"
         style="font-style:normal;font-variant:normal;font-weight:normal;font-stretch:normal;font-size:48px;line-height:1;font-family:'RBNo2 Light';-inkscape-font-specification:'RBNo2 Light, '"
         id="path16393" />
      <path
         d="m 352.8855,607.90607 h -7.248 c -1.056,0 -1.92,1.008 -1.92,2.064 v 22.272 h 1.92 v -22.272 c 0,-0.24 0.24,-0.624 0.48,-0.624 h 6.288 c 0.288,0 0.48,0.384 0.48,0.624 v 22.272 h 1.968 v -22.272 c 0,-1.056 -0.864,-2.064 -1.968,-2.064 z"
         style="font-style:normal;font-variant:normal;font-weight:normal;font-stretch:normal;font-size:48px;line-height:1;font-family:'RBNo2 Light';-inkscape-font-specification:'RBNo2 Light, '"
         id="path16395" />
      <path
         d="m 368.6355,607.95407 -5.808,-0.048 h -0.48 c -1.632,0 -2.928,1.248 -2.928,2.832 v 18.576 c 0,1.632 1.296,2.928 2.928,2.928 h 0.48 5.808 v 4.8 c 0,0.672 -0.432,1.2 -1.008,1.392 -0.144,0.048 -0.288,0.096 -0.48,0.096 h -3.36 c -0.192,0 -0.336,-0.048 -0.48,-0.096 -0.576,-0.192 -0.96,-0.72 -0.96,-1.392 v -2.4 h -1.968 v 2.4 c 0,1.632 1.296,2.928 2.928,2.928 h 0.384 0.096 3.36 0.096 0.384 c 1.632,0 2.928,-1.296 2.928,-2.928 v -4.8 -1.488 -21.36 -1.44 z m 0,22.8 h -5.808 c -0.192,0 -0.336,0 -0.48,-0.048 -0.576,-0.24 -1.008,-0.768 -1.008,-1.392 v -18.576 c 0,-0.624 0.432,-1.104 1.008,-1.296 0.144,-0.048 0.288,-0.096 0.48,-0.096 l 5.808,0.048 z"
         style="font-style:normal;font-variant:normal;font-weight:normal;font-stretch:normal;font-size:48px;line-height:1;font-family:'RBNo2 Light';-inkscape-font-specification:'RBNo2 Light, '"
         id="path16397" />
      <path
         d="m 377.1855,598.35407 v 24.672 h 1.92 v -24.672 z m 0,33.888 h 1.92 v -4.368 h -1.92 z"
         style="font-style:normal;font-variant:normal;font-weight:normal;font-stretch:normal;font-size:48px;line-height:1;font-family:'RBNo2 Light';-inkscape-font-specification:'RBNo2 Light, '"
         id="path16399" />
    </g>
  </g>
</svg>
